# xmcd CD database file
#
# Track frame offsets:
#	150
#	1651
#	32759
#	66494
#	97995
#	104763
#	133937
#	165632
#	201280
#
# Disc length: 3021 seconds
#
# Revision: 1
# Processed by: cddbd v1.5.2PL0 Copyright (c) Steve Scherf et al.
# Submitted via: CDex 1.51
#
DISCID=7a0bcb09
DTITLE=SEGA - OutRun (Sega Saturn)
DYEAR=1996
DGENRE=Game
TTITLE0=DATA TRACK
TTITLE1=Magical Sound Shower
TTITLE2=Splash Wave
TTITLE3=Passing Breeze
TTITLE4=Last Wave
TTITLE5=Magical Sound Shower '96
TTITLE6=Splash Wave '96
TTITLE7=Passing Breeze '96
TTITLE8=Last Wave '96
EXTD=YEAR: 1996
EXTT0=
EXTT1=
EXTT2=
EXTT3=
EXTT4=
EXTT5=
EXTT6=
EXTT7=
EXTT8=
PLAYORDER=
